<svg xmlns="http://www.w3.org/2000/svg" id="145593767" viewBox="0 0 390 131" height="131" width="390" style="width: 390px; height: 131px; position: absolute; top: 50%; left: 50%; transform: translate(-50%, -50%) scale(0.723077); z-index: 0; cursor: pointer;"><defs id="SvgjsDefs1819" /><g id="SvgjsG1820" featurekey="rootContainer" transform="matrix(1,0,0,1,0,0)" fill="#8785a2"><rect xmlns="http://www.w3.org/2000/svg" width="390" height="131" rx="10" ry="10"/></g><g id="SvgjsG1821" featurekey="q4o0QG-0" transform="matrix(5.9686221630790905,0,0,5.9686221630790905,15.702589025758574,-10.081855474233748)" fill="#ffffff"><path d="M4.42 5.18 l-0.06 13.02 l1.6 -0.22 l1.4 0.04 l-0.06 1.88 l-1.2 0.16 l-5.12 -0.04 l-0.26 -13.42 l0.3 -1.44 z M10.1 13.379999999999999 l2 -0.1 l-0.06 -2.78 l-0.5 -1.94 l-1.24 -0.1 z M10.64 5.199999999999999 l1.28 0 l2.62 0.18 l0.54 7.26 l0.2 7.24 l-0.6 0.04 l-2.26 0.1 l-0.24 0 l-0.18 -4.5 l-1.88 -0.12 l-0.5 4.6 l-1.96 0.06 l0.64 -7.48 l0.58 -4.28 l0.42 -3 z M19.4 5.039999999999999 l0.54 0.22 l0.74 6 l0.26 -0.04 l1.04 -6.18 l3.56 0.42 c0.02 0.64 0.12 2.48 0.18 4.14 c0.02 0.98 0.04 2.06 0.04 3.2 l0.12 5.08 l0 1.66 l-0.1 0.46 l0 0.12 c-0.26 0.02 -0.52 0.02 -0.8 0.02 c-0.42 0 -0.96 0.04 -1.38 -0.02 l-0.5 -7.98 l-0.38 0.2 l-1.02 7.62 l-1.76 0.06 l-1.1 -7.58 l-0.84 -0.28 l-0.22 7.92 l-1.84 0 l0.24 -14.8 z M34.620000000000005 7.199999999999999 l-0.08 10.84 l-0.22 1.44 l-0.64 0.52 l-2.04 0.22 l-3.74 -0.36 l-0.54 -0.54 l-0.38 -0.82 l0.08 -3.44 c0 -1.5 0.02 -2.86 0.06 -4.06 c-0.02 -2.04 0 -4.08 0.06 -4.18 c0 -0.08 0.12 -0.42 0.34 -0.74 l0.26 -0.64 l3.16 -0.3 l2.26 0.28 l1.12 0.44 z M31 17.3 l0.74 -0.3 l0.24 -7.48 l-0.48 -0.28 l-1.92 -0.04 l-0.18 0.68 l0.04 2.82 l0 4.48 l0.32 0.06 z M39.9 8.22 l-2.1 -0.22 l-0.22 9.2 l1.92 0.04 l0.28 -0.3 l0.48 -4.78 l0 -2.3 z M36.16 5.359999999999999 l0.62 0 l1.6 -0.04 c0.88 -0.02 1.72 -0.04 2.1 0.02 l1.18 0.34 c0.24 0.08 0.48 0.18 0.72 0.28 l1.1 1.76 c0.08 1.26 0.14 2.44 0.16 3.56 c0 1.92 0 4.02 -0.16 4.9 c-0.1 0.62 -0.24 1.14 -0.26 1.52 c-0.06 0.22 -0.08 0.44 -0.08 0.62 l-1.06 1.58 l-2.4 0.14 l-3.62 0 z M44.879999999999995 19.92 l-0.04 -6.94 l0.08 -0.74 l-0.04 -0.74 l0.1 -4.42 l0.18 -1.72 l6.5 0.12 l0.1 3.9 l-4.26 0 l-0.08 2.5 l3.26 -0.06 l0 0.22 l0.1 1.7 l-3.04 0.06 l0.1 2.96 l4.06 0.2 l0 3.08 z M56.4 5.199999999999999 l0 12.2 l1.5 0.28 l1.46 0.04 l-0.14 2.26 l-1.14 0 l-3.8 0.14 l-1.26 -0.04 l-0.26 -13.28 l0.12 -1.44 z" /></g></svg>
